<svg width="277" height="248" version="1.1" xmlns="http://www.w3.org/2000/svg" desc="Created with imagetracer.js version 1.2.6" ><path fill="rgb(254,254,254)" stroke="rgb(254,254,254)" stroke-width="1" opacity="0.807843137254902" d="M 127.5 0 L 149.5 0 L 170 4.5 L 167.5 5 L 155.5 2 L 132.5 1 L 131.5 2 L 121.5 2 L 107.5 5 L 107.5 4 L 127.5 0 Z " /><path fill="rgb(254,254,254)" stroke="rgb(254,254,254)" stroke-width="1" opacity="0.807843137254902" d="M 103.5 5 L 106 5.5 L 92.5 10 L 92.5 9 L 103.5 5 Z " /><path fill="rgb(254,254,254)" stroke="rgb(254,254,254)" stroke-width="1" opacity="0.807843137254902" d="M 171.5 5 L 185 9.5 L 183.5 10 L 171.5 6 L 171.5 5 Z " /><path fill="rgb(254,254,254)" stroke="rgb(254,254,254)" stroke-width="1" opacity="0.807843137254902" d="M 89.5 10 L 91 10.5 L 76.5 18 L 77.5 16 L 89.5 10 Z " /><path fill="rgb(254,254,254)" stroke="rgb(254,254,254)" stroke-width="1" opacity="0.807843137254902" d="M 186.5 10 L 201 17.5 L 199.5 17 L 186.5 11 L 186.5 10 Z " /><path fill="rgb(254,254,254)" stroke="rgb(254,254,254)" stroke-width="1" opacity="0.807843137254902" d="M 74.5 18 L 73.5 20 Q 58.3 28.8 47 41.5 Q 34.6 55.1 26.5 73 L 27 71.5 Q 37.6 47.1 56.5 31 L 74.5 18 Z " /><path fill="rgb(254,254,254)" stroke="rgb(254,254,254)" stroke-width="1" opacity="0.807843137254902" d="M 202.5 18 Q 219.6 27.9 232 42.5 Q 243 54.5 250 70.5 L 248 69.5 Q 238 47 220.5 32 L 203.5 20 L 202.5 18 Z " /><path fill="rgb(254,254,254)" stroke="rgb(254,254,254)" stroke-width="1" opacity="0.807843137254902" d="M 127.5 31 L 149.5 31 L 155 32.5 L 150.5 33 L 149.5 32 L 127.5 32 L 122.5 33 L 122.5 32 L 127.5 31 Z " /><path fill="rgb(254,254,254)" stroke="rgb(254,254,254)" stroke-width="1" opacity="0.807843137254902" d="M 117.5 33 L 121 33.5 L 117.5 34 L 117.5 33 Z " /><path fill="rgb(254,254,254)" stroke="rgb(254,254,254)" stroke-width="1" opacity="0.807843137254902" d="M 156.5 33 L 160 33.5 L 156.5 34 L 156.5 33 Z " /><path fill="rgb(254,254,254)" stroke="rgb(254,254,254)" stroke-width="1" opacity="0.807843137254902" d="M 113.5 34 L 116 34.5 L 100.5 40 L 101.5 38 L 113.5 34 Z " /><path fill="rgb(254,254,254)" stroke="rgb(254,254,254)" stroke-width="1" opacity="0.807843137254902" d="M 161.5 34 L 175.5 38 L 177 39.5 L 175.5 40 L 161.5 35 L 161.5 34 Z " /><path fill="rgb(254,254,254)" stroke="rgb(254,254,254)" stroke-width="1" opacity="0.807843137254902" d="M 94.5 42 L 93.5 44 Q 77.4 51.9 67 65.5 Q 56 78 51 96.5 L 52.5 96 L 72.5 89 L 72.5 90 L 50 98 L 52 88.5 L 58 76.5 L 73.5 57 Q 82.5 48 94.5 42 Z " /><path fill="rgb(254,254,254)" stroke="rgb(254,254,254)" stroke-width="1" opacity="0.807843137254902" d="M 182.5 42 Q 195.5 48.5 205 58.5 L 212 66.5 L 213 70 L 184 69.5 L 212 68.5 L 196.5 52 L 183.5 44 L 182.5 42 Z " /><path fill="rgb(254,254,254)" stroke="rgb(254,254,254)" stroke-width="1" opacity="0.807843137254902" d="M 127.5 64 Q 138.8 62.8 145 66.5 L 143.5 66 L 128.5 65 L 114.5 68 Q 99.5 73.5 90.5 85 L 77.5 88 L 77.5 87 L 90.5 84 Q 98.1 74.6 109.5 69 L 127.5 64 Z " /><path fill="rgb(254,254,254)" stroke="rgb(254,254,254)" stroke-width="1" opacity="0.807843137254902" d="M 25.5 74 L 26 75.5 L 24.5 78 L 24 76.5 L 25.5 74 Z " /><path fill="rgb(254,254,254)" stroke="rgb(254,254,254)" stroke-width="1" opacity="0.807843137254902" d="M 251.5 74 L 252 76 Q 264.7 79.6 272 89.5 L 273 91.5 L 271 90.5 L 264.5 83 L 253.5 78 L 251 75.5 L 251.5 74 Z " /><path fill="rgb(254,254,254)" stroke="rgb(254,254,254)" stroke-width="1" opacity="0.807843137254902" d="M 23.5 79 L 24 80.5 L 19.5 93 L 19 91.5 L 23.5 79 Z " /><path fill="rgb(254,254,254)" stroke="rgb(254,254,254)" stroke-width="1" opacity="0.807843137254902" d="M 18.5 94 L 19 97.5 L 18 97.5 L 18.5 94 Z " /><path fill="rgb(254,254,254)" stroke="rgb(254,254,254)" stroke-width="1" opacity="0.807843137254902" d="M 17.5 99 L 18 103.5 L 17 104.5 L 16 117.5 L 13.5 120 L 10 122.5 Q 4.5 128 2 136.5 L 2 149.5 Q 4.3 157.3 9.5 162 L 16 166.5 L 14.5 167 L 6 159.5 L 0 146.5 L 0 139.5 Q 4 124.5 15 116.5 L 17.5 99 Z " /><path fill="rgb(254,254,254)" stroke="rgb(254,254,254)" stroke-width="1" opacity="0.807843137254902" d="M 230.5 114 L 229.5 116 L 214.5 123 L 215.5 121 L 230.5 114 Z " /><path fill="rgb(254,254,254)" stroke="rgb(254,254,254)" stroke-width="1" opacity="0.807843137254902" d="M 187.5 117 L 188 121.5 L 187 121.5 L 187.5 117 Z " /><path fill="rgb(254,254,254)" stroke="rgb(254,254,254)" stroke-width="1" opacity="0.807843137254902" d="M 81.5 137 L 86 148 L 56 147.5 L 85 146.5 L 81 139.5 L 81.5 137 Z " /><path fill="rgb(254,254,254)" stroke="rgb(254,254,254)" stroke-width="1" opacity="0.807843137254902" d="M 48.5 146 L 51 146.5 L 48.5 147 L 48.5 146 Z " /><path fill="rgb(254,254,254)" stroke="rgb(254,254,254)" stroke-width="1" opacity="0.807843137254902" d="M 172.5 156 L 169.5 160 L 172.5 156 Z " /><path fill="rgb(254,254,254)" stroke="rgb(254,254,254)" stroke-width="1" opacity="0.807843137254902" d="M 256.5 158 L 257 160.5 Q 252.5 175.5 244.5 187 L 245 185.5 Q 252.4 173.4 256.5 158 Z " /><path fill="rgb(254,254,254)" stroke="rgb(254,254,254)" stroke-width="1" opacity="0.807843137254902" d="M 217.5 171 L 218 172.5 Q 209.7 186.2 197.5 196 Q 186.8 205.3 172.5 211 L 155.5 215 L 155.5 214 Q 190.6 207.1 209 183.5 L 217.5 171 Z " /><path fill="rgb(254,254,254)" stroke="rgb(254,254,254)" stroke-width="1" opacity="0.807843137254902" d="M 108.5 176 L 107.5 178 L 106 177.5 L 108.5 176 Z " /><path fill="rgb(254,254,254)" stroke="rgb(254,254,254)" stroke-width="1" opacity="0.807843137254902" d="M 59.5 177 L 63 177.5 L 59.5 178 L 59.5 177 Z " /><path fill="rgb(254,254,254)" stroke="rgb(254,254,254)" stroke-width="1" opacity="0.807843137254902" d="M 96.5 177 L 100 177.5 L 96.5 178 L 96.5 177 Z " /><path fill="rgb(254,254,254)" stroke="rgb(254,254,254)" stroke-width="1" opacity="0.807843137254902" d="M 76.5 178 L 82 178.5 L 76.5 179 L 76.5 178 Z " /><path fill="rgb(254,254,254)" stroke="rgb(254,254,254)" stroke-width="1" opacity="0.807843137254902" d="M 29.5 181 L 33 186.5 L 31 185.5 L 29.5 181 Z " /><path fill="rgb(254,254,254)" stroke="rgb(254,254,254)" stroke-width="1" opacity="0.807843137254902" d="M 33.5 188 Q 44.7 205.8 60.5 219 Q 72.1 228.9 87 235.5 L 85.5 235 Q 63.8 225.8 49 209.5 L 36 193.5 L 33.5 188 Z " /><path fill="rgb(254,254,254)" stroke="rgb(254,254,254)" stroke-width="1" opacity="0.807843137254902" d="M 243.5 188 L 243 189.5 Q 235 203.5 223.5 214 Q 209.5 227.5 190.5 236 L 191.5 234 Q 217.1 223.1 233 202.5 L 243.5 188 Z " /><path fill="rgb(254,254,254)" stroke="rgb(254,254,254)" stroke-width="1" opacity="0.807843137254902" d="M 75.5 191 Q 92.9 208.6 122 214.5 L 118.5 215 L 104.5 211 L 90.5 204 L 79.5 196 L 75.5 191 Z " /><path fill="rgb(254,254,254)" stroke="rgb(254,254,254)" stroke-width="1" opacity="0.807843137254902" d="M 123.5 215 L 146.5 216 Q 148 213.5 153.5 215 L 153.5 216 Q 148.8 214.7 147.5 217 L 129.5 217 Q 128.3 214.7 123.5 216 L 123.5 215 Z " /><path fill="rgb(254,254,254)" stroke="rgb(254,254,254)" stroke-width="1" opacity="0.807843137254902" d="M 88.5 236 L 107 242.5 L 104.5 243 L 92.5 239 L 88.5 237 L 88.5 236 Z " /><path fill="rgb(254,254,254)" stroke="rgb(254,254,254)" stroke-width="1" opacity="0.807843137254902" d="M 187.5 236 L 189 236.5 Q 181.5 241.5 170.5 243 L 170.5 242 L 187.5 236 Z " /><path fill="rgb(254,254,254)" stroke="rgb(254,254,254)" stroke-width="1" opacity="0.807843137254902" d="M 108.5 243 L 111 243.5 L 108.5 244 L 108.5 243 Z " /><path fill="rgb(254,254,254)" stroke="rgb(254,254,254)" stroke-width="1" opacity="0.807843137254902" d="M 166.5 243 L 169 243.5 L 166.5 244 L 166.5 243 Z " /><path fill="rgb(254,254,254)" stroke="rgb(254,254,254)" stroke-width="1" opacity="0.807843137254902" d="M 112.5 244 L 123.5 246 L 153.5 246 L 164.5 244 L 164.5 245 L 147.5 247 L 146.5 248 L 130.5 248 L 129.5 247 L 112.5 245 L 112.5 244 Z " /><path fill="rgb(0,0,0)" stroke="rgb(0,0,0)" stroke-width="1" opacity="0" d="M 0 0 L 121 0.5 L 101 4 Q 102.3 7 98.5 6 L 84 11 Q 85.1 13.7 82.5 13 L 71 18 L 69.5 21 L 62 25.5 Q 62.8 27.8 60.5 27 L 44 42.5 L 36 52.5 L 36 54.5 L 31 60.5 L 24 73.5 L 20 87.5 L 18 89.5 L 15 106.5 L 15 115.5 L 12.5 119 L 7 123.5 L 3 128.5 L 0.5 136 L 0 0 Z " /><path fill="rgb(0,0,0)" stroke="rgb(0,0,0)" stroke-width="1" opacity="0" d="M 156.5 0 L 277 0 L 277 98.5 L 276 98.5 L 275 96.5 Q 277.5 95 274 93.5 L 273 88 L 263.5 80 L 253 76 L 253 73.5 L 245 58.5 L 232 42.5 L 231 39 L 224 33.5 Q 224.8 31.3 222.5 32 L 204.5 18 L 193 13 Q 194.3 10 190.5 11 L 176 6 Q 177.3 2.3 171.5 4 L 166.5 2 L 156.5 1 L 156.5 0 Z " /><path fill="rgb(0,0,0)" stroke="rgb(0,0,0)" stroke-width="1" opacity="0" d="M 134.5 32 Q 142.5 30 144.5 34 L 154.5 34 L 174 39 Q 172.8 42 176.5 41 L 185.5 45 L 197 53.5 L 198.5 56 L 204 60.5 Q 203.3 62.8 205.5 62 L 211 68.5 L 210 68.5 L 209.5 67 L 182.5 67 Q 179.8 68.3 182 69.5 Q 181.3 71.8 183.5 71 L 190 74 L 191.5 77 L 198 81.5 L 200.5 85 Q 202.8 84.3 202 86.5 L 203 90 Q 205.7 88.9 205 91.5 Q 208.2 92.9 207 98 L 209 98 L 209.5 101 L 218.5 101 Q 220.3 103.8 226.5 102 L 228.5 104 L 233.5 104 L 241 106.5 L 236 109 Q 237.1 111.7 234.5 111 L 230 112 Q 231.1 114.7 228.5 114 L 223 116 Q 224.3 119 220.5 118 L 212 121 L 212 128.5 L 209 140 Q 206.3 138.9 207 141.5 L 207 143.5 L 201.5 152 Q 199.3 151.3 200 153.5 L 197 158 Q 193.2 156.5 194 159.5 L 193 163 L 202.5 160 L 207 160 Q 205.8 157 209.5 158 L 222.5 153 L 226 153 Q 224.9 150.3 227.5 151 L 241 146 Q 239.9 143.3 242.5 144 L 263 132 L 266.5 127 L 269 125.5 L 274 117.5 L 276.5 109 L 277 248 L 155 247.5 L 175 244 Q 173.8 241 177.5 242 L 189.5 238 L 205 230 Q 203.9 227.3 206.5 228 L 215 223 L 216.5 220 L 231 207.5 Q 239.2 200.3 243 190 Q 245.7 191.1 245 188.5 L 249 179 Q 251.7 180.1 251 177.5 L 255 168.5 L 255 165.5 L 258 161.5 L 260 153.5 L 257.5 153 Q 252.6 157.5 245 158 Q 246.1 160.7 243.5 160 L 237.5 163 L 228 165 Q 229.3 168 225.5 167 L 218.5 169 L 216 171.5 L 215 175 Q 212.3 173.9 213 176.5 L 206.5 185 L 204 186.5 L 199.5 192 L 197 193.5 Q 197.8 195.8 195.5 195 L 187 200 Q 188.1 202.7 185.5 202 L 172.5 209 L 158.5 213 Q 153.8 211.8 152.5 214 L 124.5 214 L 106.5 210 Q 99.5 204.3 90 202 Q 91.1 199.3 88.5 200 L 80 195 L 78.5 192 L 75.5 190 L 60.5 189 L 59.5 188 L 57.5 188 L 53.5 188 Q 54.5 184.7 48.5 186 L 31 181 Q 32.1 178.3 29.5 179 Q 28.3 176.8 27 179.5 Q 37.8 201.7 55.5 217 L 62 221.5 Q 61.3 223.8 63.5 223 L 72 228 Q 70.9 230.7 73.5 230 L 87.5 238 L 102 242 Q 100.7 245.7 106.5 244 L 123 247.5 L 0 248 L 0.5 150 Q 2.6 159.4 9.5 164 L 12 165.5 Q 11.3 167.8 13.5 167 L 26 172 Q 24.7 175.3 29.5 174 L 46.5 178 L 85.5 180 L 86.5 179 L 102.5 179 L 112.5 177 L 116.5 178 L 117.5 177 L 126.5 177 L 127.5 176 L 136.5 176 L 137.5 175 L 148.5 174 L 150.5 172 L 164 167 Q 162.9 164.3 165.5 165 L 174 157.5 Q 173.3 155.3 175.5 156 L 180 147 L 183 145.5 L 186 134 Q 189.7 135.3 188 129.5 L 189 128.5 L 189 113.5 L 189 111.5 L 188 104 Q 185.3 105.1 186 102.5 L 181.5 92 Q 179.3 92.8 180 90.5 L 175 81 L 167 75.5 L 166.5 74 L 165 74.5 Q 165.8 72.3 163.5 73 L 155 69 Q 156.3 66 152.5 67 L 143.5 64 L 122.5 64 L 111.5 67 L 99 74 Q 100.1 76.7 97.5 76 L 91 81.5 Q 91.8 84.1 88.5 83 L 84.5 85 L 69 88 Q 70.3 91 66.5 90 L 52.5 95 L 52 93.5 L 55 89.5 L 59 78.5 L 73 59 L 80 54.5 L 81.5 52 L 90 48 L 91.5 45 L 103 41 Q 101.8 38 105.5 39 L 112.5 36 L 122.5 34 L 132.5 34 L 134.5 32 Z " /><path fill="rgb(0,0,0)" stroke="rgb(0,0,0)" stroke-width="1" opacity="0" d="M 76.5 121 L 79 130.5 L 78 132.5 L 81 143 Q 84 141.8 83 145.5 L 83.5 147 L 52 146 Q 53.4 142 46.5 144 L 45 144.5 Q 45.9 141.1 40.5 143 L 36 141.5 L 41 139 L 42.5 136 L 53 132 Q 51.8 129 55.5 130 L 66.5 125 L 70 125 Q 68.8 122 72.5 123 L 76.5 121 Z " /><path fill="rgb(254,254,254)" stroke="rgb(254,254,254)" stroke-width="1" opacity="1" d="M 147.5 67 L 154 69.5 L 151.5 70 Q 147.5 69.5 147.5 67 Z " /><path fill="rgb(254,254,254)" stroke="rgb(254,254,254)" stroke-width="1" opacity="1" d="M 188.5 71 L 189.5 73 L 188.5 71 Z " /><path fill="rgb(254,254,254)" stroke="rgb(254,254,254)" stroke-width="1" opacity="1" d="M 191.5 73 L 194.5 77 L 191.5 73 Z " /><path fill="rgb(254,254,254)" stroke="rgb(254,254,254)" stroke-width="1" opacity="1" d="M 163.5 75 L 166 76.5 L 164.5 76 L 163.5 75 Z " /><path fill="rgb(254,254,254)" stroke="rgb(254,254,254)" stroke-width="1" opacity="1" d="M 198.5 79 L 201.5 83 Q 199.3 83.8 200 81.5 L 198.5 79 Z " /><path fill="rgb(254,254,254)" stroke="rgb(254,254,254)" stroke-width="1" opacity="1" d="M 170.5 80 L 173.5 84 L 171 83 L 170.5 80 Z " /><path fill="rgb(254,254,254)" stroke="rgb(254,254,254)" stroke-width="1" opacity="1" d="M 204.5 86 L 206 88.5 L 204 87.5 L 204.5 86 Z " /><path fill="rgb(254,254,254)" stroke="rgb(254,254,254)" stroke-width="1" opacity="1" d="M 177.5 89 L 179 91.5 L 178 91.5 L 177.5 89 Z " /><path fill="rgb(254,254,254)" stroke="rgb(254,254,254)" stroke-width="1" opacity="1" d="M 207.5 92 L 211 98.5 L 210 98.5 L 207.5 92 Z " /><path fill="rgb(254,254,254)" stroke="rgb(254,254,254)" stroke-width="1" opacity="1" d="M 274.5 98 L 275 100.5 L 274 100.5 L 274.5 98 Z " /><path fill="rgb(254,254,254)" stroke="rgb(254,254,254)" stroke-width="1" opacity="1" d="M 214.5 99 L 219 99.5 L 214.5 100 L 214.5 99 Z " /><path fill="rgb(254,254,254)" stroke="rgb(254,254,254)" stroke-width="1" opacity="1" d="M 225.5 100 L 230 100.5 L 225.5 101 L 225.5 100 Z " /><path fill="rgb(254,254,254)" stroke="rgb(254,254,254)" stroke-width="1" opacity="1" d="M 235.5 102 Q 239.9 100.5 239 103.5 L 237.5 103 Q 234.5 103.5 235.5 102 Z " /><path fill="rgb(254,254,254)" stroke="rgb(254,254,254)" stroke-width="1" opacity="1" d="M 243.5 105 L 244 108 L 242 107.5 L 243.5 105 Z " /><path fill="rgb(254,254,254)" stroke="rgb(254,254,254)" stroke-width="1" opacity="1" d="M 185.5 107 Q 187.8 110.8 187 117.5 L 186 117.5 L 185.5 107 Z " /><path fill="rgb(254,254,254)" stroke="rgb(254,254,254)" stroke-width="1" opacity="1" d="M 274.5 107 L 275 110.5 L 274 110.5 L 274.5 107 Z " /><path fill="rgb(254,254,254)" stroke="rgb(254,254,254)" stroke-width="1" opacity="1" d="M 239.5 109 L 240 111 L 237.5 112 L 239.5 109 Z " /><path fill="rgb(254,254,254)" stroke="rgb(254,254,254)" stroke-width="1" opacity="1" d="M 235.5 112 L 234.5 114 L 235.5 112 Z " /><path fill="rgb(254,254,254)" stroke="rgb(254,254,254)" stroke-width="1" opacity="1" d="M 186.5 121 L 187 127.5 L 185.5 132 L 185 128.5 L 186.5 121 Z " /><path fill="rgb(254,254,254)" stroke="rgb(254,254,254)" stroke-width="1" opacity="1" d="M 268.5 121 L 269 122.5 L 266 124.5 L 268.5 121 Z " /><path fill="rgb(254,254,254)" stroke="rgb(254,254,254)" stroke-width="1" opacity="1" d="M 66.5 122 L 68 122.5 L 63.5 125 L 63 123 L 66.5 122 Z " /><path fill="rgb(254,254,254)" stroke="rgb(254,254,254)" stroke-width="1" opacity="1" d="M 263.5 127 L 260.5 131 L 259 130.5 L 263.5 127 Z " /><path fill="rgb(254,254,254)" stroke="rgb(254,254,254)" stroke-width="1" opacity="1" d="M 50.5 129 L 52 129.5 L 48.5 131 L 48.5 130 L 50.5 129 Z " /><path fill="rgb(254,254,254)" stroke="rgb(254,254,254)" stroke-width="1" opacity="1" d="M 40.5 135 L 39.5 137 L 35.5 140 L 36 138.5 Q 35.3 136.3 37.5 137 L 40.5 135 Z " /><path fill="rgb(254,254,254)" stroke="rgb(254,254,254)" stroke-width="1" opacity="1" d="M 252.5 135 L 254 135.5 L 247.5 140 L 249.5 137 L 252.5 135 Z " /><path fill="rgb(254,254,254)" stroke="rgb(254,254,254)" stroke-width="1" opacity="1" d="M 210.5 139 L 211 140.5 L 207.5 146 L 208 144.5 L 210.5 139 Z " /><path fill="rgb(254,254,254)" stroke="rgb(254,254,254)" stroke-width="1" opacity="1" d="M 181.5 143 L 181 144.5 Q 181.8 146.8 179.5 146 L 181.5 143 Z " /><path fill="rgb(254,254,254)" stroke="rgb(254,254,254)" stroke-width="1" opacity="1" d="M 238.5 143 L 240 143.5 L 235.5 146 L 236.5 144 L 238.5 143 Z " /><path fill="rgb(254,254,254)" stroke="rgb(254,254,254)" stroke-width="1" opacity="1" d="M 38.5 144 L 48 146.5 L 44.5 147 L 39.5 146 L 38.5 144 Z " /><path fill="rgb(254,254,254)" stroke="rgb(254,254,254)" stroke-width="1" opacity="1" d="M 50.5 147 L 56 147.5 L 50.5 148 L 50.5 147 Z " /><path fill="rgb(254,254,254)" stroke="rgb(254,254,254)" stroke-width="1" opacity="1" d="M 178.5 147 L 179 148.5 L 176.5 152 L 176 150.5 L 178.5 147 Z " /><path fill="rgb(254,254,254)" stroke="rgb(254,254,254)" stroke-width="1" opacity="1" d="M 222.5 150 L 224 150.5 L 219.5 153 L 219 151 L 222.5 150 Z " /><path fill="rgb(254,254,254)" stroke="rgb(254,254,254)" stroke-width="1" opacity="1" d="M 202.5 153 L 199.5 158 L 204.5 157 L 204.5 158 L 198.5 160 L 196 159.5 L 202.5 153 Z " /><path fill="rgb(254,254,254)" stroke="rgb(254,254,254)" stroke-width="1" opacity="1" d="M 250.5 158 L 251 160 L 247.5 161 L 248.5 159 L 250.5 158 Z " /><path fill="rgb(254,254,254)" stroke="rgb(254,254,254)" stroke-width="1" opacity="1" d="M 162.5 164 L 161.5 166 L 160 165.5 L 162.5 164 Z " /><path fill="rgb(254,254,254)" stroke="rgb(254,254,254)" stroke-width="1" opacity="1" d="M 234.5 165 L 233.5 167 L 232 166.5 L 234.5 165 Z " /><path fill="rgb(254,254,254)" stroke="rgb(254,254,254)" stroke-width="1" opacity="1" d="M 28.5 171 L 35 173.5 L 33.5 173 Q 28.6 173.6 28.5 171 Z " /><path fill="rgb(254,254,254)" stroke="rgb(254,254,254)" stroke-width="1" opacity="1" d="M 145.5 171 L 148 171.5 L 145.5 172 L 145.5 171 Z " /><path fill="rgb(254,254,254)" stroke="rgb(254,254,254)" stroke-width="1" opacity="1" d="M 137.5 172 L 144 172.5 L 134.5 174 L 134.5 173 L 137.5 172 Z " /><path fill="rgb(254,254,254)" stroke="rgb(254,254,254)" stroke-width="1" opacity="1" d="M 125.5 174 L 128 174.5 L 125.5 175 L 125.5 174 Z " /><path fill="rgb(254,254,254)" stroke="rgb(254,254,254)" stroke-width="1" opacity="1" d="M 44.5 175 L 47 175.5 L 44.5 176 L 44.5 175 Z " /><path fill="rgb(254,254,254)" stroke="rgb(254,254,254)" stroke-width="1" opacity="1" d="M 114.5 175 L 119 175.5 L 114.5 176 L 114.5 175 Z " /><path fill="rgb(254,254,254)" stroke="rgb(254,254,254)" stroke-width="1" opacity="1" d="M 52.5 176 L 58 176.5 L 52.5 177 L 52.5 176 Z " /><path fill="rgb(254,254,254)" stroke="rgb(254,254,254)" stroke-width="1" opacity="1" d="M 99.5 176 L 108 176.5 L 99.5 177 L 99.5 176 Z " /><path fill="rgb(254,254,254)" stroke="rgb(254,254,254)" stroke-width="1" opacity="1" d="M 68.5 177 L 91 177.5 L 68.5 178 L 68.5 177 Z " /><path fill="rgb(254,254,254)" stroke="rgb(254,254,254)" stroke-width="1" opacity="1" d="M 42.5 186 L 46 187.5 L 42 188 L 42.5 186 Z " /><path fill="rgb(254,254,254)" stroke="rgb(254,254,254)" stroke-width="1" opacity="1" d="M 47.5 188 L 50 188.5 L 47.5 189 L 47.5 188 Z " /><path fill="rgb(254,254,254)" stroke="rgb(254,254,254)" stroke-width="1" opacity="1" d="M 59.5 190 L 62 190.5 L 59.5 191 L 59.5 190 Z " /><path fill="rgb(254,254,254)" stroke="rgb(254,254,254)" stroke-width="1" opacity="1" d="M 72.5 191 L 75 191.5 L 72.5 192 L 72.5 191 Z " /><path fill="rgb(255,255,255)" stroke="rgb(255,255,255)" stroke-width="1" opacity="1" d="M 132.5 1 L 144.5 1 L 145.5 2 L 161.5 3 L 185.5 10 Q 212.1 21.4 230 41.5 L 244 60.5 L 251 75.5 L 253.5 78 Q 265.1 80.9 271 89.5 L 274 95.5 L 275 106.5 L 273 115.5 L 270 121 Q 267.3 119.9 268 122.5 L 264.5 127 L 259 130 L 257.5 133 L 230.5 148 L 219 151 Q 220.3 154 216.5 153 Q 209.5 157 199.5 158 L 197.5 160 L 203 153.5 L 211 140.5 L 213 133.5 L 213 127.5 L 215.5 122 L 240 111 L 241.5 108 Q 245.7 109.1 244 105 L 239 104 Q 240.4 100 233.5 102 L 229.5 100 L 220.5 99 L 218.5 99 L 211.5 99 L 211 97.5 L 206 90.5 L 205 86 L 203 86 Q 204.1 83.3 201.5 84 Q 203.3 81.5 198.5 79 L 187 70.5 L 213 70 L 212 66.5 L 203.5 57 L 188.5 45 L 175.5 38 L 149.5 31 L 127.5 31 L 101.5 38 L 88.5 45 L 72 58.5 L 58 76.5 L 52 88.5 L 50 98 L 76.5 88 L 90.5 85 Q 99.5 73.5 114.5 68 L 128.5 65 L 137.5 65 L 146.5 67 L 148.5 69 L 154.5 70 L 163 74 Q 161.9 76.7 164.5 76 L 171 81.5 Q 170.3 83.8 172.5 83 Q 177.1 86.1 178 92 Q 180.7 90.9 180 93.5 L 184 101.5 L 187 120.5 L 186 121.5 L 185 133.5 L 182 142.5 L 179 145.5 L 179.5 147 Q 177.3 146.3 178 148.5 L 170.5 158 Q 168.3 157.3 169 159.5 L 160 165 Q 161.3 168 157.5 167 L 144.5 172 L 137.5 172 L 133.5 174 L 125.5 174 L 124.5 175 L 99.5 176 L 98.5 177 L 58.5 177 L 57.5 176 L 47.5 176 L 46.5 175 L 35.5 174 L 33.5 172 L 26.5 171 L 14.5 166 L 8 160.5 Q -0.3 153.8 2 136.5 Q 5.1 126.1 12.5 120 L 16 117.5 L 19 93.5 L 26 73.5 Q 37.3 49.8 55.5 33 Q 70.7 18.7 91.5 10 L 110.5 4 L 121.5 2 L 131.5 2 L 132.5 1 Z M 77 119 L 66 123 Q 62 122 63 125 L 50 130 Q 47 129 48 132 L 36 137 L 33 143 Q 38 142 40 146 L 51 148 L 86 148 L 82 140 L 79 128 L 79 120 L 77 119 Z " /><path fill="rgb(255,255,255)" stroke="rgb(255,255,255)" stroke-width="1" opacity="1" d="M 255.5 156 Q 257.8 155.3 257 157.5 L 252 171.5 L 244 187.5 Q 232.5 205.5 216.5 219 Q 204.5 229 189.5 236 L 169.5 243 L 153.5 246 L 123.5 246 Q 71 237 44 202.5 L 31 183.5 L 32.5 183 L 42 186 Q 40.6 189.7 46.5 188 L 59.5 191 L 75.5 192 Q 88.3 205.2 107.5 212 L 129.5 217 L 147.5 217 L 169.5 212 L 186.5 204 Q 200.6 195.1 211 182.5 L 219.5 171 L 228.5 169 Q 238.1 162.5 251 160 Q 249.9 157.3 252.5 158 L 255.5 156 Z " /><path fill="rgb(215,215,215)" stroke="rgb(215,215,215)" stroke-width="1" opacity="0.7294117647058823" d="M 145.5 66 L 148 66.5 L 145.5 67 L 145.5 66 Z " /><path fill="rgb(215,215,215)" stroke="rgb(215,215,215)" stroke-width="1" opacity="0.7294117647058823" d="M 152.5 68 L 163 73.5 L 161.5 73 L 152.5 69 L 152.5 68 Z " /><path fill="rgb(215,215,215)" stroke="rgb(215,215,215)" stroke-width="1" opacity="0.7294117647058823" d="M 184.5 70 Q 193.4 73.6 199 80.5 L 195.5 78 L 184.5 71 L 184.5 70 Z " /><path fill="rgb(215,215,215)" stroke="rgb(215,215,215)" stroke-width="1" opacity="0.7294117647058823" d="M 164.5 74 L 166.5 77 L 164.5 74 Z " /><path fill="rgb(215,215,215)" stroke="rgb(215,215,215)" stroke-width="1" opacity="0.7294117647058823" d="M 168.5 78 L 174 82.5 L 170.5 80 L 168.5 78 Z " /><path fill="rgb(215,215,215)" stroke="rgb(215,215,215)" stroke-width="1" opacity="0.7294117647058823" d="M 200.5 83 L 207 91.5 L 205 90.5 L 200.5 83 Z " /><path fill="rgb(215,215,215)" stroke="rgb(215,215,215)" stroke-width="1" opacity="0.7294117647058823" d="M 176.5 86 L 177.5 88 L 176.5 86 Z " /><path fill="rgb(215,215,215)" stroke="rgb(215,215,215)" stroke-width="1" opacity="0.7294117647058823" d="M 178.5 89 L 181 92.5 L 179 91.5 L 178.5 89 Z " /><path fill="rgb(215,215,215)" stroke="rgb(215,215,215)" stroke-width="1" opacity="0.7294117647058823" d="M 273.5 93 Q 277.9 98.6 276 110.5 L 273.5 116 L 273 114.5 Q 277 109.5 275 98.5 L 273.5 93 Z " /><path fill="rgb(215,215,215)" stroke="rgb(215,215,215)" stroke-width="1" opacity="0.7294117647058823" d="M 182.5 96 L 186 105.5 L 185 105.5 L 182.5 96 Z " /><path fill="rgb(215,215,215)" stroke="rgb(215,215,215)" stroke-width="1" opacity="0.7294117647058823" d="M 209.5 97 L 210 99 L 214 100.5 L 212.5 100 L 209 98.5 L 209.5 97 Z " /><path fill="rgb(215,215,215)" stroke="rgb(215,215,215)" stroke-width="1" opacity="0.7294117647058823" d="M 217.5 100 L 221 100.5 L 217.5 101 L 217.5 100 Z " /><path fill="rgb(215,215,215)" stroke="rgb(215,215,215)" stroke-width="1" opacity="0.7294117647058823" d="M 223.5 100 L 229 101.5 L 224.5 102 L 223.5 100 Z " /><path fill="rgb(215,215,215)" stroke="rgb(215,215,215)" stroke-width="1" opacity="0.7294117647058823" d="M 235.5 103 L 238 103.5 L 235.5 104 L 235.5 103 Z " /><path fill="rgb(215,215,215)" stroke="rgb(215,215,215)" stroke-width="1" opacity="0.7294117647058823" d="M 242.5 105 L 243 106.5 L 240 108.5 L 242.5 105 Z " /><path fill="rgb(215,215,215)" stroke="rgb(215,215,215)" stroke-width="1" opacity="0.7294117647058823" d="M 186.5 107 L 187 109.5 L 186 109.5 L 186.5 107 Z " /><path fill="rgb(215,215,215)" stroke="rgb(215,215,215)" stroke-width="1" opacity="0.7294117647058823" d="M 238.5 109 L 237.5 111 L 238.5 109 Z " /><path fill="rgb(215,215,215)" stroke="rgb(215,215,215)" stroke-width="1" opacity="0.7294117647058823" d="M 235.5 111 L 234.5 113 L 230.5 114 L 230.5 113 L 235.5 111 Z " /><path fill="rgb(215,215,215)" stroke="rgb(215,215,215)" stroke-width="1" opacity="0.7294117647058823" d="M 187.5 113 L 188 116.5 L 187 116.5 L 187.5 113 Z " /><path fill="rgb(215,215,215)" stroke="rgb(215,215,215)" stroke-width="1" opacity="0.7294117647058823" d="M 77.5 119 Q 80.8 120.8 79 127.5 L 78 127.5 Q 78.6 120.8 77.5 119 Z " /><path fill="rgb(215,215,215)" stroke="rgb(215,215,215)" stroke-width="1" opacity="0.7294117647058823" d="M 271.5 119 L 270 121.5 L 260.5 132 L 256.5 135 L 259.5 131 L 269 122.5 L 271.5 119 Z " /><path fill="rgb(215,215,215)" stroke="rgb(215,215,215)" stroke-width="1" opacity="0.7294117647058823" d="M 74.5 120 L 76 120.5 L 69.5 123 L 69.5 122 L 74.5 120 Z " /><path fill="rgb(215,215,215)" stroke="rgb(215,215,215)" stroke-width="1" opacity="0.7294117647058823" d="M 187.5 122 L 188 125.5 L 187 125.5 L 187.5 122 Z " /><path fill="rgb(215,215,215)" stroke="rgb(215,215,215)" stroke-width="1" opacity="0.7294117647058823" d="M 213.5 122 L 214 125.5 L 213 125.5 L 213.5 122 Z " /><path fill="rgb(215,215,215)" stroke="rgb(215,215,215)" stroke-width="1" opacity="0.7294117647058823" d="M 61.5 125 L 63 125.5 L 55.5 129 L 56.5 127 L 61.5 125 Z " /><path fill="rgb(215,215,215)" stroke="rgb(215,215,215)" stroke-width="1" opacity="0.7294117647058823" d="M 212.5 128 L 213 131.5 Q 211.8 139.3 207.5 144 L 208 142.5 L 212.5 128 Z " /><path fill="rgb(215,215,215)" stroke="rgb(215,215,215)" stroke-width="1" opacity="0.7294117647058823" d="M 79.5 129 L 81 135.5 L 80 135.5 L 79.5 129 Z " /><path fill="rgb(215,215,215)" stroke="rgb(215,215,215)" stroke-width="1" opacity="0.7294117647058823" d="M 186.5 129 L 187 131.5 L 182.5 143 L 182 141.5 L 186.5 129 Z " /><path fill="rgb(215,215,215)" stroke="rgb(215,215,215)" stroke-width="1" opacity="0.7294117647058823" d="M 44.5 133 L 46 133.5 L 42.5 136 L 44.5 133 Z " /><path fill="rgb(215,215,215)" stroke="rgb(215,215,215)" stroke-width="1" opacity="0.7294117647058823" d="M 254.5 135 L 253.5 137 L 248.5 140 L 249.5 138 L 254.5 135 Z " /><path fill="rgb(215,215,215)" stroke="rgb(215,215,215)" stroke-width="1" opacity="0.7294117647058823" d="M 40.5 136 L 39.5 138 L 40.5 136 Z " /><path fill="rgb(215,215,215)" stroke="rgb(215,215,215)" stroke-width="1" opacity="0.7294117647058823" d="M 37.5 138 L 35 141.5 L 35.5 143 Q 32.5 143.7 34 140 L 37.5 138 Z " /><path fill="rgb(215,215,215)" stroke="rgb(215,215,215)" stroke-width="1" opacity="0.7294117647058823" d="M 246.5 140 L 245.5 142 L 232.5 148 L 232.5 147 L 246.5 140 Z " /><path fill="rgb(215,215,215)" stroke="rgb(215,215,215)" stroke-width="1" opacity="0.7294117647058823" d="M 44.5 145 L 48 145.5 L 44.5 146 L 44.5 145 Z " /><path fill="rgb(215,215,215)" stroke="rgb(215,215,215)" stroke-width="1" opacity="0.7294117647058823" d="M 206.5 145 L 207 146.5 L 205 147.5 L 206.5 145 Z " /><path fill="rgb(215,215,215)" stroke="rgb(215,215,215)" stroke-width="1" opacity="0.7294117647058823" d="M 51.5 146 L 54 146.5 L 51.5 147 L 51.5 146 Z " /><path fill="rgb(215,215,215)" stroke="rgb(215,215,215)" stroke-width="1" opacity="0.7294117647058823" d="M 180.5 146 L 180 147.5 L 170.5 160 L 173 156.5 L 180.5 146 Z " /><path fill="rgb(215,215,215)" stroke="rgb(215,215,215)" stroke-width="1" opacity="0.7294117647058823" d="M 229.5 148 L 231 148.5 L 225.5 151 L 225.5 150 L 229.5 148 Z " /><path fill="rgb(215,215,215)" stroke="rgb(215,215,215)" stroke-width="1" opacity="0.7294117647058823" d="M 204.5 149 L 203 151.5 L 196 159.5 L 198 160.5 L 193.5 162 L 202 152.5 L 204.5 149 Z " /><path fill="rgb(215,215,215)" stroke="rgb(215,215,215)" stroke-width="1" opacity="0.7294117647058823" d="M 222.5 151 L 224 151.5 L 220.5 153 L 220.5 152 L 222.5 151 Z " /><path fill="rgb(215,215,215)" stroke="rgb(215,215,215)" stroke-width="1" opacity="0.7294117647058823" d="M 214.5 154 L 216 154.5 L 211.5 156 L 211.5 155 L 214.5 154 Z " /><path fill="rgb(215,215,215)" stroke="rgb(215,215,215)" stroke-width="1" opacity="0.7294117647058823" d="M 256.5 154 L 258 154.5 L 251.5 158 L 251.5 157 L 256.5 154 Z " /><path fill="rgb(215,215,215)" stroke="rgb(215,215,215)" stroke-width="1" opacity="0.7294117647058823" d="M 208.5 156 L 210 156.5 L 202.5 159 L 202.5 158 L 208.5 156 Z " /><path fill="rgb(215,215,215)" stroke="rgb(215,215,215)" stroke-width="1" opacity="0.7294117647058823" d="M 168.5 160 L 165.5 164 L 162.5 166 L 164.5 163 L 168.5 160 Z " /><path fill="rgb(215,215,215)" stroke="rgb(215,215,215)" stroke-width="1" opacity="0.7294117647058823" d="M 244.5 160 L 246 160.5 L 235.5 165 L 235.5 164 L 244.5 160 Z " /><path fill="rgb(215,215,215)" stroke="rgb(215,215,215)" stroke-width="1" opacity="0.7294117647058823" d="M 160.5 166 L 159.5 168 L 149.5 172 L 149.5 171 L 160.5 166 Z " /><path fill="rgb(215,215,215)" stroke="rgb(215,215,215)" stroke-width="1" opacity="0.7294117647058823" d="M 16.5 167 L 24 170.5 L 22.5 171 L 16.5 168 L 16.5 167 Z " /><path fill="rgb(215,215,215)" stroke="rgb(215,215,215)" stroke-width="1" opacity="0.7294117647058823" d="M 227.5 167 L 229 167.5 L 221.5 170 L 221.5 169 L 227.5 167 Z " /><path fill="rgb(215,215,215)" stroke="rgb(215,215,215)" stroke-width="1" opacity="0.7294117647058823" d="M 31.5 173 L 34 173.5 L 31.5 174 L 31.5 173 Z " /><path fill="rgb(215,215,215)" stroke="rgb(215,215,215)" stroke-width="1" opacity="0.7294117647058823" d="M 138.5 173 L 141 173.5 L 138.5 174 L 138.5 173 Z " /><path fill="rgb(215,215,215)" stroke="rgb(215,215,215)" stroke-width="1" opacity="0.7294117647058823" d="M 35.5 174 L 38 174.5 L 35.5 175 L 35.5 174 Z " /><path fill="rgb(215,215,215)" stroke="rgb(215,215,215)" stroke-width="1" opacity="0.7294117647058823" d="M 131.5 174 L 134 174.5 L 131.5 175 L 131.5 174 Z " /><path fill="rgb(215,215,215)" stroke="rgb(215,215,215)" stroke-width="1" opacity="0.7294117647058823" d="M 39.5 175 L 43 175.5 L 39.5 176 L 39.5 175 Z " /><path fill="rgb(215,215,215)" stroke="rgb(215,215,215)" stroke-width="1" opacity="0.7294117647058823" d="M 121.5 175 L 125 175.5 L 121.5 176 L 121.5 175 Z " /><path fill="rgb(215,215,215)" stroke="rgb(215,215,215)" stroke-width="1" opacity="0.7294117647058823" d="M 44.5 176 L 47 176.5 L 44.5 177 L 44.5 176 Z " /><path fill="rgb(215,215,215)" stroke="rgb(215,215,215)" stroke-width="1" opacity="0.7294117647058823" d="M 48.5 176 L 51 176.5 L 48.5 177 L 48.5 176 Z " /><path fill="rgb(215,215,215)" stroke="rgb(215,215,215)" stroke-width="1" opacity="0.7294117647058823" d="M 109.5 176 L 114 176.5 L 108.5 178 L 109.5 176 Z " /><path fill="rgb(215,215,215)" stroke="rgb(215,215,215)" stroke-width="1" opacity="0.7294117647058823" d="M 115.5 176 L 119 176.5 L 115.5 177 L 115.5 176 Z " /><path fill="rgb(215,215,215)" stroke="rgb(215,215,215)" stroke-width="1" opacity="0.7294117647058823" d="M 54.5 177 L 59 177.5 L 54.5 178 L 54.5 177 Z " /><path fill="rgb(215,215,215)" stroke="rgb(215,215,215)" stroke-width="1" opacity="0.7294117647058823" d="M 63.5 177 L 76 178.5 L 66.5 179 L 63.5 178 L 63.5 177 Z " /><path fill="rgb(215,215,215)" stroke="rgb(215,215,215)" stroke-width="1" opacity="0.7294117647058823" d="M 91.5 177 L 96 177.5 Q 91.5 180.5 82.5 179 L 82.5 178 L 90.5 178 L 91.5 177 Z " /><path fill="rgb(215,215,215)" stroke="rgb(215,215,215)" stroke-width="1" opacity="0.7294117647058823" d="M 100.5 177 L 106 177.5 L 100.5 178 L 100.5 177 Z " /><path fill="rgb(215,215,215)" stroke="rgb(215,215,215)" stroke-width="1" opacity="0.7294117647058823" d="M 29.5 180 L 34 182.5 L 32.5 183 L 29.5 180 Z " /><path fill="rgb(215,215,215)" stroke="rgb(215,215,215)" stroke-width="1" opacity="0.7294117647058823" d="M 35.5 183 L 42 185.5 L 39.5 186 L 35.5 184 L 35.5 183 Z " /><path fill="rgb(215,215,215)" stroke="rgb(215,215,215)" stroke-width="1" opacity="0.7294117647058823" d="M 51.5 188 Q 55.9 186.5 55 189.5 L 53.5 189 Q 50.5 189.5 51.5 188 Z " /><path fill="rgb(215,215,215)" stroke="rgb(215,215,215)" stroke-width="1" opacity="0.7294117647058823" d="M 57.5 189 L 60 189.5 L 57.5 190 L 57.5 189 Z " /><path fill="rgb(215,215,215)" stroke="rgb(215,215,215)" stroke-width="1" opacity="0.7294117647058823" d="M 61.5 189 L 65 190.5 L 62.5 191 L 61.5 189 Z " /><path fill="rgb(215,215,215)" stroke="rgb(215,215,215)" stroke-width="1" opacity="0.7294117647058823" d="M 66.5 190 L 72 190.5 L 66.5 191 L 66.5 190 Z " /><path fill="rgb(226,226,226)" stroke="rgb(226,226,226)" stroke-width="1" opacity="0.17254901960784313" d="M 121.5 0 L 127 0.5 L 116.5 2 L 116.5 1 L 121.5 0 Z " /><path fill="rgb(226,226,226)" stroke="rgb(226,226,226)" stroke-width="1" opacity="0.17254901960784313" d="M 150.5 0 L 161 1.5 L 156.5 2 Q 155.3 -0.3 150.5 1 L 150.5 0 Z " /><path fill="rgb(226,226,226)" stroke="rgb(226,226,226)" stroke-width="1" opacity="0.17254901960784313" d="M 111.5 2 L 115 2.5 L 111.5 3 L 111.5 2 Z " /><path fill="rgb(226,226,226)" stroke="rgb(226,226,226)" stroke-width="1" opacity="0.17254901960784313" d="M 162.5 2 L 176 4 Q 177.1 6.7 174.5 6 L 166.5 3 L 162.5 3 L 162.5 2 Z " /><path fill="rgb(226,226,226)" stroke="rgb(226,226,226)" stroke-width="1" opacity="0.17254901960784313" d="M 106.5 3 L 110 3.5 L 101 6 Q 99.7 2.3 105.5 4 L 106.5 3 Z " /><path fill="rgb(226,226,226)" stroke="rgb(226,226,226)" stroke-width="1" opacity="0.17254901960784313" d="M 92.5 8 L 94 8.5 L 84.5 13 L 84 11 L 92.5 8 Z " /><path fill="rgb(226,226,226)" stroke="rgb(226,226,226)" stroke-width="1" opacity="0.17254901960784313" d="M 183.5 8 L 193 11 L 192.5 13 L 183.5 9 L 183.5 8 Z " /><path fill="rgb(226,226,226)" stroke="rgb(226,226,226)" stroke-width="1" opacity="0.17254901960784313" d="M 76.5 16 L 75.5 18 L 70.5 21 L 71 19.5 Q 70.2 16.9 73.5 18 L 76.5 16 Z " /><path fill="rgb(226,226,226)" stroke="rgb(226,226,226)" stroke-width="1" opacity="0.17254901960784313" d="M 200.5 16 L 207 20.5 L 204.5 19 Q 200.5 18.5 200.5 16 Z " /><path fill="rgb(226,226,226)" stroke="rgb(226,226,226)" stroke-width="1" opacity="0.17254901960784313" d="M 68.5 21 L 67.5 23 L 68.5 21 Z " /><path fill="rgb(226,226,226)" stroke="rgb(226,226,226)" stroke-width="1" opacity="0.17254901960784313" d="M 208.5 21 L 209.5 23 L 208.5 21 Z " /><path fill="rgb(226,226,226)" stroke="rgb(226,226,226)" stroke-width="1" opacity="0.17254901960784313" d="M 65.5 23 L 63.5 26 L 62 25.5 L 65.5 23 Z " /><path fill="rgb(226,226,226)" stroke="rgb(226,226,226)" stroke-width="1" opacity="0.17254901960784313" d="M 211.5 23 Q 216.5 29.5 224 32 L 229.5 39 Q 231.8 38.3 231 40.5 L 231.5 42 L 213.5 26 L 211.5 23 Z " /><path fill="rgb(226,226,226)" stroke="rgb(226,226,226)" stroke-width="1" opacity="0.17254901960784313" d="M 60.5 27 L 57.5 31 L 46 41.5 L 41.5 47 L 44 43.5 L 56.5 30 L 60.5 27 Z " /><path fill="rgb(226,226,226)" stroke="rgb(226,226,226)" stroke-width="1" opacity="0.17254901960784313" d="M 127.5 32 L 134 32.5 L 132.5 34 L 122.5 34 L 113.5 36 L 113.5 35 L 127.5 32 Z " /><path fill="rgb(226,226,226)" stroke="rgb(226,226,226)" stroke-width="1" opacity="0.17254901960784313" d="M 143.5 32 Q 155.6 31.9 164 35.5 L 160.5 36 Q 154.8 32.8 144.5 34 L 143.5 32 Z " /><path fill="rgb(226,226,226)" stroke="rgb(226,226,226)" stroke-width="1" opacity="0.17254901960784313" d="M 102.5 39 L 103 41 L 94.5 44 L 95.5 42 L 102.5 39 Z " /><path fill="rgb(226,226,226)" stroke="rgb(226,226,226)" stroke-width="1" opacity="0.17254901960784313" d="M 174.5 39 L 183 43.5 L 181.5 43 L 174 41 L 174.5 39 Z " /><path fill="rgb(226,226,226)" stroke="rgb(226,226,226)" stroke-width="1" opacity="0.17254901960784313" d="M 232.5 43 L 241 53.5 L 239 52.5 L 232.5 43 Z " /><path fill="rgb(226,226,226)" stroke="rgb(226,226,226)" stroke-width="1" opacity="0.17254901960784313" d="M 90.5 45 L 90 46.5 Q 90.8 48.8 88.5 48 L 82.5 52 L 84.5 49 L 90.5 45 Z " /><path fill="rgb(226,226,226)" stroke="rgb(226,226,226)" stroke-width="1" opacity="0.17254901960784313" d="M 186.5 45 L 195 51.5 L 192.5 50 Q 187.2 49 186.5 45 Z " /><path fill="rgb(226,226,226)" stroke="rgb(226,226,226)" stroke-width="1" opacity="0.17254901960784313" d="M 40.5 48 L 38 51.5 L 36.5 54 L 36 52.5 L 40.5 48 Z " /><path fill="rgb(226,226,226)" stroke="rgb(226,226,226)" stroke-width="1" opacity="0.17254901960784313" d="M 80.5 52 L 80 53.5 L 78.5 56 L 74.5 59 L 80.5 52 Z " /><path fill="rgb(226,226,226)" stroke="rgb(226,226,226)" stroke-width="1" opacity="0.17254901960784313" d="M 196.5 52 L 209.5 66 L 204 62 L 199.5 56 L 197 54.5 L 196.5 52 Z " /><path fill="rgb(226,226,226)" stroke="rgb(226,226,226)" stroke-width="1" opacity="0.17254901960784313" d="M 35.5 55 L 34.5 57 L 35.5 55 Z " /><path fill="rgb(226,226,226)" stroke="rgb(226,226,226)" stroke-width="1" opacity="0.17254901960784313" d="M 241.5 55 Q 246.8 59.2 249 66.5 L 247 65.5 L 241.5 55 Z " /><path fill="rgb(226,226,226)" stroke="rgb(226,226,226)" stroke-width="1" opacity="0.17254901960784313" d="M 33.5 58 L 32 60.5 L 29.5 65 L 30 63.5 L 33.5 58 Z " /><path fill="rgb(226,226,226)" stroke="rgb(226,226,226)" stroke-width="1" opacity="0.17254901960784313" d="M 72.5 60 L 67.5 66 L 72.5 60 Z " /><path fill="rgb(226,226,226)" stroke="rgb(226,226,226)" stroke-width="1" opacity="0.17254901960784313" d="M 122.5 64 L 127 64.5 L 122.5 65 L 122.5 64 Z " /><path fill="rgb(226,226,226)" stroke="rgb(226,226,226)" stroke-width="1" opacity="0.17254901960784313" d="M 138.5 64 L 143.5 64 L 155 67 L 154.5 69 Q 148.5 65 138.5 65 L 138.5 64 Z " /><path fill="rgb(226,226,226)" stroke="rgb(226,226,226)" stroke-width="1" opacity="0.17254901960784313" d="M 117.5 65 L 121 65.5 L 110.5 69 L 111.5 67 L 117.5 65 Z " /><path fill="rgb(226,226,226)" stroke="rgb(226,226,226)" stroke-width="1" opacity="0.17254901960784313" d="M 28.5 66 L 28 67.5 L 21.5 84 L 21 81.5 L 28.5 66 Z " /><path fill="rgb(226,226,226)" stroke="rgb(226,226,226)" stroke-width="1" opacity="0.17254901960784313" d="M 182.5 67 L 209.5 67 L 210 69 L 184.5 69 L 184 71 L 189 73.5 L 187.5 73 L 182 71 L 181 68.5 L 182.5 67 Z " /><path fill="rgb(226,226,226)" stroke="rgb(226,226,226)" stroke-width="1" opacity="0.17254901960784313" d="M 65.5 68 L 65 69.5 L 59 78.5 L 52.5 93 L 52 91.5 Q 56.9 77.9 65.5 68 Z " /><path fill="rgb(226,226,226)" stroke="rgb(226,226,226)" stroke-width="1" opacity="0.17254901960784313" d="M 249.5 68 L 253 75.5 L 252 75.5 L 249.5 68 Z " /><path fill="rgb(226,226,226)" stroke="rgb(226,226,226)" stroke-width="1" opacity="0.17254901960784313" d="M 106.5 70 L 105.5 72 L 99.5 76 L 99 74 L 106.5 70 Z " /><path fill="rgb(226,226,226)" stroke="rgb(226,226,226)" stroke-width="1" opacity="0.17254901960784313" d="M 162.5 72 L 165 73.5 L 163.5 74 L 162.5 72 Z " /><path fill="rgb(226,226,226)" stroke="rgb(226,226,226)" stroke-width="1" opacity="0.17254901960784313" d="M 166.5 74 L 168.5 77 L 175 81 L 177 85.5 L 174 83.5 L 169.5 78 L 166 75.5 L 166.5 74 Z " /><path fill="rgb(226,226,226)" stroke="rgb(226,226,226)" stroke-width="1" opacity="0.17254901960784313" d="M 190.5 74 L 200 82.5 L 201 84.5 L 198 82.5 L 195.5 79 L 190 75.5 L 190.5 74 Z " /><path fill="rgb(226,226,226)" stroke="rgb(226,226,226)" stroke-width="1" opacity="0.17254901960784313" d="M 97.5 76 L 90.5 84 L 88 83.5 L 91 83 L 92.5 80 L 97.5 76 Z " /><path fill="rgb(226,226,226)" stroke="rgb(226,226,226)" stroke-width="1" opacity="0.17254901960784313" d="M 258.5 78 L 263.5 80 L 273 88 L 274 92.5 L 273 92.5 L 272 89.5 L 264.5 82 L 258.5 79 L 258.5 78 Z " /><path fill="rgb(226,226,226)" stroke="rgb(226,226,226)" stroke-width="1" opacity="0.17254901960784313" d="M 77.5 86 L 80 86.5 L 69 90 Q 67.7 86.7 72.5 88 L 77.5 86 Z " /><path fill="rgb(226,226,226)" stroke="rgb(226,226,226)" stroke-width="1" opacity="0.17254901960784313" d="M 19.5 88 L 20 90.5 L 18 94.5 L 16.5 104 L 16 99.5 L 18 89.5 L 19.5 88 Z " /><path fill="rgb(226,226,226)" stroke="rgb(226,226,226)" stroke-width="1" opacity="0.17254901960784313" d="M 203.5 88 L 204.5 90 Q 201.7 90.7 203.5 88 Z " /><path fill="rgb(226,226,226)" stroke="rgb(226,226,226)" stroke-width="1" opacity="0.17254901960784313" d="M 205.5 91 L 206.5 93 L 205.5 91 Z " /><path fill="rgb(226,226,226)" stroke="rgb(226,226,226)" stroke-width="1" opacity="0.17254901960784313" d="M 59.5 92 L 62 92.5 L 51.5 97 L 51 94.5 L 53.5 94 L 59.5 92 Z " /><path fill="rgb(226,226,226)" stroke="rgb(226,226,226)" stroke-width="1" opacity="0.17254901960784313" d="M 181.5 92 L 185 99.5 L 184 99.5 L 181.5 92 Z " /><path fill="rgb(226,226,226)" stroke="rgb(226,226,226)" stroke-width="1" opacity="0.17254901960784313" d="M 207.5 94 L 209 98 Q 205.2 99.2 207.5 94 Z " /><path fill="rgb(226,226,226)" stroke="rgb(226,226,226)" stroke-width="1" opacity="0.17254901960784313" d="M 274.5 94 L 275.5 96 L 274.5 94 Z " /><path fill="rgb(226,226,226)" stroke="rgb(226,226,226)" stroke-width="1" opacity="0.17254901960784313" d="M 209.5 99 L 213 100.5 L 209 101 L 209.5 99 Z " /><path fill="rgb(226,226,226)" stroke="rgb(226,226,226)" stroke-width="1" opacity="0.17254901960784313" d="M 276.5 99 L 277 101.5 L 276 101.5 L 276.5 99 Z " /><path fill="rgb(226,226,226)" stroke="rgb(226,226,226)" stroke-width="1" opacity="0.17254901960784313" d="M 219.5 101 L 224 101.5 L 219.5 102 L 219.5 101 Z " /><path fill="rgb(226,226,226)" stroke="rgb(226,226,226)" stroke-width="1" opacity="0.17254901960784313" d="M 227.5 102 L 242 105 L 239.5 109 L 236.5 111 L 236 109 L 241 106.5 L 238.5 105 L 228.5 104 L 227.5 102 Z " /><path fill="rgb(226,226,226)" stroke="rgb(226,226,226)" stroke-width="1" opacity="0.17254901960784313" d="M 276.5 103 L 277 108.5 L 276 108.5 L 276.5 103 Z " /><path fill="rgb(226,226,226)" stroke="rgb(226,226,226)" stroke-width="1" opacity="0.17254901960784313" d="M 186 104 Q 190 102.6 188 109.5 L 189 111.5 L 189 113.5 L 189 128.5 L 188 134 Q 185.3 135.1 186 132.5 Q 189.3 125.3 188 113.5 L 186 104 Z " /><path fill="rgb(226,226,226)" stroke="rgb(226,226,226)" stroke-width="1" opacity="0.17254901960784313" d="M 15.5 106 L 16 110.5 L 15 110.5 L 15.5 106 Z " /><path fill="rgb(226,226,226)" stroke="rgb(226,226,226)" stroke-width="1" opacity="0.17254901960784313" d="M 230.5 112 L 233 112.5 L 230.5 113 L 230.5 112 Z " /><path fill="rgb(226,226,226)" stroke="rgb(226,226,226)" stroke-width="1" opacity="0.17254901960784313" d="M 228.5 114 L 230 114.5 L 223.5 118 L 223 116 L 228.5 114 Z " /><path fill="rgb(226,226,226)" stroke="rgb(226,226,226)" stroke-width="1" opacity="0.17254901960784313" d="M 273.5 116 L 274 117.5 L 272 118.5 L 273.5 116 Z " /><path fill="rgb(226,226,226)" stroke="rgb(226,226,226)" stroke-width="1" opacity="0.17254901960784313" d="M 11.5 119 L 8 123.5 L 2.5 133 L 2 130.5 L 11.5 119 Z " /><path fill="rgb(226,226,226)" stroke="rgb(226,226,226)" stroke-width="1" opacity="0.17254901960784313" d="M 76.5 120 Q 79.9 119.1 78 124.5 L 77 124.5 L 76.5 121 L 74.5 122 L 74.5 121 L 76.5 120 Z " /><path fill="rgb(226,226,226)" stroke="rgb(226,226,226)" stroke-width="1" opacity="0.17254901960784313" d="M 215.5 120 L 217 120.5 L 213 122 L 212.5 128 L 212 121 L 215.5 120 Z " /><path fill="rgb(226,226,226)" stroke="rgb(226,226,226)" stroke-width="1" opacity="0.17254901960784313" d="M 271.5 120 L 270.5 122 L 271.5 120 Z " /><path fill="rgb(226,226,226)" stroke="rgb(226,226,226)" stroke-width="1" opacity="0.17254901960784313" d="M 68.5 123 Q 71.1 122.3 70 125 L 59.5 128 L 59.5 127 L 68.5 123 Z " /><path fill="rgb(226,226,226)" stroke="rgb(226,226,226)" stroke-width="1" opacity="0.17254901960784313" d="M 269.5 123 L 269 124.5 L 267.5 127 L 263 130.5 Q 263.8 132.8 261.5 132 L 246.5 142 L 247.5 140 Q 260.8 133.8 269.5 123 Z " /><path fill="rgb(226,226,226)" stroke="rgb(226,226,226)" stroke-width="1" opacity="0.17254901960784313" d="M 56.5 128 L 58 128.5 L 54.5 130 L 54.5 129 L 56.5 128 Z " /><path fill="rgb(226,226,226)" stroke="rgb(226,226,226)" stroke-width="1" opacity="0.17254901960784313" d="M 211.5 129 L 212 131.5 L 211 131.5 L 211.5 129 Z " /><path fill="rgb(226,226,226)" stroke="rgb(226,226,226)" stroke-width="1" opacity="0.17254901960784313" d="M 52.5 130 L 53 132 L 43.5 136 L 44.5 134 L 52.5 130 Z " /><path fill="rgb(226,226,226)" stroke="rgb(226,226,226)" stroke-width="1" opacity="0.17254901960784313" d="M 78.5 131 L 83 142.5 L 81 143 L 78.5 131 Z " /><path fill="rgb(226,226,226)" stroke="rgb(226,226,226)" stroke-width="1" opacity="0.17254901960784313" d="M 210.5 133 L 211 135.5 L 210 135.5 L 210.5 133 Z " /><path fill="rgb(226,226,226)" stroke="rgb(226,226,226)" stroke-width="1" opacity="0.17254901960784313" d="M 1.5 134 L 2 135.5 L 0.5 139 L 0 136.5 L 1.5 134 Z " /><path fill="rgb(226,226,226)" stroke="rgb(226,226,226)" stroke-width="1" opacity="0.17254901960784313" d="M 41.5 136 L 41 137.5 Q 41.8 139.8 39.5 139 L 36 141.5 L 45 143 Q 46.1 145.7 43.5 145 L 35 141.5 L 41.5 136 Z " /><path fill="rgb(226,226,226)" stroke="rgb(226,226,226)" stroke-width="1" opacity="0.17254901960784313" d="M 207 140 L 209 140.5 L 208 143 L 206 142.5 L 207 140 Z " /><path fill="rgb(226,226,226)" stroke="rgb(226,226,226)" stroke-width="1" opacity="0.17254901960784313" d="M 182.5 143 L 183 145.5 L 181 146.5 L 182.5 143 Z " /><path fill="rgb(226,226,226)" stroke="rgb(226,226,226)" stroke-width="1" opacity="0.17254901960784313" d="M 46.5 144 Q 53.4 142 52 146 Q 47.1 146.8 46.5 144 Z " /><path fill="rgb(226,226,226)" stroke="rgb(226,226,226)" stroke-width="1" opacity="0.17254901960784313" d="M 83.5 144 L 85 146.5 L 83 145.5 L 83.5 144 Z " /><path fill="rgb(226,226,226)" stroke="rgb(226,226,226)" stroke-width="1" opacity="0.17254901960784313" d="M 240.5 144 L 241 146 L 234.5 148 L 234.5 147 L 240.5 144 Z " /><path fill="rgb(226,226,226)" stroke="rgb(226,226,226)" stroke-width="1" opacity="0.17254901960784313" d="M 57.5 146 L 66 146.5 L 57.5 147 L 57.5 146 Z " /><path fill="rgb(226,226,226)" stroke="rgb(226,226,226)" stroke-width="1" opacity="0.17254901960784313" d="M 205.5 146 L 205 147.5 L 203.5 150 L 204 148.5 L 205.5 146 Z " /><path fill="rgb(226,226,226)" stroke="rgb(226,226,226)" stroke-width="1" opacity="0.17254901960784313" d="M 0.5 147 Q 2.8 157.8 10 163.5 L 4 158.5 L 0 149.5 L 0.5 147 Z " /><path fill="rgb(226,226,226)" stroke="rgb(226,226,226)" stroke-width="1" opacity="0.17254901960784313" d="M 231.5 148 L 233 148.5 L 229.5 150 L 229.5 149 L 231.5 148 Z " /><path fill="rgb(226,226,226)" stroke="rgb(226,226,226)" stroke-width="1" opacity="0.17254901960784313" d="M 224.5 151 Q 227.1 150.3 226 153 L 214.5 156 L 214.5 155 L 224.5 151 Z " /><path fill="rgb(226,226,226)" stroke="rgb(226,226,226)" stroke-width="1" opacity="0.17254901960784313" d="M 200 152 L 202 152.5 L 197 156.5 L 200 152 Z " /><path fill="rgb(226,226,226)" stroke="rgb(226,226,226)" stroke-width="1" opacity="0.17254901960784313" d="M 176.5 153 L 177 154.5 L 174.5 156 L 176.5 153 Z " /><path fill="rgb(226,226,226)" stroke="rgb(226,226,226)" stroke-width="1" opacity="0.17254901960784313" d="M 257.5 153 L 260 153.5 L 256.5 163 L 256 161.5 L 258 154.5 L 257.5 153 Z " /><path fill="rgb(226,226,226)" stroke="rgb(226,226,226)" stroke-width="1" opacity="0.17254901960784313" d="M 255.5 154 L 254.5 156 L 245 160 Q 243.8 157 247.5 158 L 255.5 154 Z " /><path fill="rgb(226,226,226)" stroke="rgb(226,226,226)" stroke-width="1" opacity="0.17254901960784313" d="M 210.5 156 L 213 156.5 L 208.5 158 L 208.5 157 L 210.5 156 Z " /><path fill="rgb(226,226,226)" stroke="rgb(226,226,226)" stroke-width="1" opacity="0.17254901960784313" d="M 173.5 157 L 169.5 162 L 164 165 Q 165.1 167.7 162.5 167 L 156.5 170 L 156.5 169 Q 166.6 164.6 173.5 157 Z " /><path fill="rgb(226,226,226)" stroke="rgb(226,226,226)" stroke-width="1" opacity="0.17254901960784313" d="M 194 158 L 196 158.5 L 193 160.5 L 194 158 Z " /><path fill="rgb(226,226,226)" stroke="rgb(226,226,226)" stroke-width="1" opacity="0.17254901960784313" d="M 205.5 158 Q 208.1 157.3 207 160 L 202.5 160 L 193.5 163 L 193.5 162 L 205.5 158 Z " /><path fill="rgb(226,226,226)" stroke="rgb(226,226,226)" stroke-width="1" opacity="0.17254901960784313" d="M 240.5 161 L 242 161.5 L 238.5 163 L 238.5 162 L 240.5 161 Z " /><path fill="rgb(226,226,226)" stroke="rgb(226,226,226)" stroke-width="1" opacity="0.17254901960784313" d="M 234.5 163 L 237 163.5 L 228 167 Q 226.8 164 230.5 165 L 234.5 163 Z " /><path fill="rgb(226,226,226)" stroke="rgb(226,226,226)" stroke-width="1" opacity="0.17254901960784313" d="M 11.5 164 L 20 169.5 L 18.5 170 L 12 167 L 11.5 164 Z " /><path fill="rgb(226,226,226)" stroke="rgb(226,226,226)" stroke-width="1" opacity="0.17254901960784313" d="M 254.5 167 L 255 168.5 L 253.5 171 L 253 169.5 L 254.5 167 Z " /><path fill="rgb(226,226,226)" stroke="rgb(226,226,226)" stroke-width="1" opacity="0.17254901960784313" d="M 218.5 169 L 221 169.5 L 217 171.5 L 215.5 174 L 216 172.5 L 218.5 169 Z " /><path fill="rgb(226,226,226)" stroke="rgb(226,226,226)" stroke-width="1" opacity="0.17254901960784313" d="M 26 172 L 44 176.5 L 39.5 177 L 26 174 L 26 172 Z " /><path fill="rgb(226,226,226)" stroke="rgb(226,226,226)" stroke-width="1" opacity="0.17254901960784313" d="M 147.5 172 L 150 172.5 L 148.5 174 L 143.5 174 L 136.5 176 L 119.5 177 L 119.5 176 L 126.5 176 L 134.5 174 L 136.5 174 Q 143.9 174.9 147.5 172 Z " /><path fill="rgb(226,226,226)" stroke="rgb(226,226,226)" stroke-width="1" opacity="0.17254901960784313" d="M 252.5 172 L 253 173.5 L 251 179 L 249 178.5 L 252.5 172 Z " /><path fill="rgb(226,226,226)" stroke="rgb(226,226,226)" stroke-width="1" opacity="0.17254901960784313" d="M 213 175 L 215 175.5 L 210.5 181 L 210 179.5 L 213 175 Z " /><path fill="rgb(226,226,226)" stroke="rgb(226,226,226)" stroke-width="1" opacity="0.17254901960784313" d="M 46.5 177 L 53 177.5 L 46.5 178 L 46.5 177 Z " /><path fill="rgb(226,226,226)" stroke="rgb(226,226,226)" stroke-width="1" opacity="0.17254901960784313" d="M 109.5 177 L 112 177.5 L 109.5 178 L 109.5 177 Z " /><path fill="rgb(226,226,226)" stroke="rgb(226,226,226)" stroke-width="1" opacity="0.17254901960784313" d="M 113.5 177 L 117 177.5 L 113.5 178 L 113.5 177 Z " /><path fill="rgb(226,226,226)" stroke="rgb(226,226,226)" stroke-width="1" opacity="0.17254901960784313" d="M 28.5 178 L 31 179 L 30.5 181 L 29 180.5 L 34 189.5 L 31 187.5 L 27 179.5 L 28.5 178 Z " /><path fill="rgb(226,226,226)" stroke="rgb(226,226,226)" stroke-width="1" opacity="0.17254901960784313" d="M 57.5 178 L 66 178.5 L 57.5 179 L 57.5 178 Z " /><path fill="rgb(226,226,226)" stroke="rgb(226,226,226)" stroke-width="1" opacity="0.17254901960784313" d="M 93.5 178 L 103 178.5 L 93.5 179 L 93.5 178 Z " /><path fill="rgb(226,226,226)" stroke="rgb(226,226,226)" stroke-width="1" opacity="0.17254901960784313" d="M 73.5 179 L 86 179.5 L 73.5 180 L 73.5 179 Z " /><path fill="rgb(226,226,226)" stroke="rgb(226,226,226)" stroke-width="1" opacity="0.17254901960784313" d="M 248.5 180 L 249 181.5 L 246.5 185 L 247 183.5 L 248.5 180 Z " /><path fill="rgb(226,226,226)" stroke="rgb(226,226,226)" stroke-width="1" opacity="0.17254901960784313" d="M 32.5 181 L 36 182.5 L 34.5 183 L 32.5 181 Z " /><path fill="rgb(226,226,226)" stroke="rgb(226,226,226)" stroke-width="1" opacity="0.17254901960784313" d="M 37.5 183 L 53 186 Q 54.3 189.3 49.5 188 L 39.5 185 L 37.5 183 Z " /><path fill="rgb(226,226,226)" stroke="rgb(226,226,226)" stroke-width="1" opacity="0.17254901960784313" d="M 208.5 183 L 198.5 194 L 197 193.5 L 204 187.5 L 205.5 185 L 208.5 183 Z " /><path fill="rgb(226,226,226)" stroke="rgb(226,226,226)" stroke-width="1" opacity="0.17254901960784313" d="M 245.5 186 L 246 187.5 L 245 190 L 243 189.5 L 245.5 186 Z " /><path fill="rgb(226,226,226)" stroke="rgb(226,226,226)" stroke-width="1" opacity="0.17254901960784313" d="M 55.5 188 L 58 188.5 L 55.5 189 L 55.5 188 Z " /><path fill="rgb(226,226,226)" stroke="rgb(226,226,226)" stroke-width="1" opacity="0.17254901960784313" d="M 63.5 189 L 69 189.5 L 63.5 190 L 63.5 189 Z " /><path fill="rgb(226,226,226)" stroke="rgb(226,226,226)" stroke-width="1" opacity="0.17254901960784313" d="M 74.5 190 L 80 193.5 L 78.5 194 L 74.5 190 Z " /><path fill="rgb(226,226,226)" stroke="rgb(226,226,226)" stroke-width="1" opacity="0.17254901960784313" d="M 34.5 191 L 35.5 193 L 34.5 191 Z " /><path fill="rgb(226,226,226)" stroke="rgb(226,226,226)" stroke-width="1" opacity="0.17254901960784313" d="M 242.5 191 L 241.5 193 L 242.5 191 Z " /><path fill="rgb(226,226,226)" stroke="rgb(226,226,226)" stroke-width="1" opacity="0.17254901960784313" d="M 36.5 194 L 53.5 214 L 60 219.5 L 56.5 217 L 46 207.5 L 37 196.5 L 36.5 194 Z " /><path fill="rgb(226,226,226)" stroke="rgb(226,226,226)" stroke-width="1" opacity="0.17254901960784313" d="M 240.5 194 L 240 195.5 Q 232.2 207.7 221.5 217 L 217.5 220 L 222.5 214 L 228 209.5 L 240.5 194 Z " /><path fill="rgb(226,226,226)" stroke="rgb(226,226,226)" stroke-width="1" opacity="0.17254901960784313" d="M 81.5 195 L 90 200 L 89.5 202 Q 83.4 199.3 81.5 195 Z " /><path fill="rgb(226,226,226)" stroke="rgb(226,226,226)" stroke-width="1" opacity="0.17254901960784313" d="M 195.5 195 L 193.5 198 L 187.5 202 L 187 200 L 195.5 195 Z " /><path fill="rgb(226,226,226)" stroke="rgb(226,226,226)" stroke-width="1" opacity="0.17254901960784313" d="M 93.5 203 L 104 208.5 L 102.5 209 L 94.5 205 L 93.5 203 Z " /><path fill="rgb(226,226,226)" stroke="rgb(226,226,226)" stroke-width="1" opacity="0.17254901960784313" d="M 183.5 203 L 182.5 205 L 173.5 209 L 174.5 207 L 183.5 203 Z " /><path fill="rgb(226,226,226)" stroke="rgb(226,226,226)" stroke-width="1" opacity="0.17254901960784313" d="M 114.5 212 L 124.5 214 L 152.5 214 L 162.5 212 L 162.5 213 L 146.5 216 L 130.5 216 L 114.5 213 L 114.5 212 Z " /><path fill="rgb(226,226,226)" stroke="rgb(226,226,226)" stroke-width="1" opacity="0.17254901960784313" d="M 61.5 220 L 68 225.5 L 66.5 225 L 62 223 L 61.5 220 Z " /><path fill="rgb(226,226,226)" stroke="rgb(226,226,226)" stroke-width="1" opacity="0.17254901960784313" d="M 214.5 221 L 215 223 L 209.5 226 L 210.5 224 L 214.5 221 Z " /><path fill="rgb(226,226,226)" stroke="rgb(226,226,226)" stroke-width="1" opacity="0.17254901960784313" d="M 69.5 226 L 70.5 228 L 69.5 226 Z " /><path fill="rgb(226,226,226)" stroke="rgb(226,226,226)" stroke-width="1" opacity="0.17254901960784313" d="M 207.5 226 L 206.5 228 L 207.5 226 Z " /><path fill="rgb(226,226,226)" stroke="rgb(226,226,226)" stroke-width="1" opacity="0.17254901960784313" d="M 72.5 228 L 79 232.5 L 77.5 232 L 72 230 L 72.5 228 Z " /><path fill="rgb(226,226,226)" stroke="rgb(226,226,226)" stroke-width="1" opacity="0.17254901960784313" d="M 204.5 228 L 205 230 L 198.5 233 L 199.5 231 L 204.5 228 Z " /><path fill="rgb(226,226,226)" stroke="rgb(226,226,226)" stroke-width="1" opacity="0.17254901960784313" d="M 84.5 235 L 92 238.5 L 90.5 239 L 85.5 237 L 84.5 235 Z " /><path fill="rgb(226,226,226)" stroke="rgb(226,226,226)" stroke-width="1" opacity="0.17254901960784313" d="M 191.5 235 L 193 235.5 L 185.5 239 L 185.5 238 L 191.5 235 Z " /><path fill="rgb(226,226,226)" stroke="rgb(226,226,226)" stroke-width="1" opacity="0.17254901960784313" d="M 102 242 L 116 245.5 L 112.5 246 L 102 244 L 102 242 Z " /><path fill="rgb(226,226,226)" stroke="rgb(226,226,226)" stroke-width="1" opacity="0.17254901960784313" d="M 173.5 242 Q 176.1 241.3 175 244 L 161.5 246 L 161.5 245 L 173.5 242 Z " /><path fill="rgb(226,226,226)" stroke="rgb(226,226,226)" stroke-width="1" opacity="0.17254901960784313" d="M 118.5 246 L 130 247.5 L 123.5 248 L 118.5 247 L 118.5 246 Z " /><path fill="rgb(226,226,226)" stroke="rgb(226,226,226)" stroke-width="1" opacity="0.17254901960784313" d="M 154.5 246 L 159 246.5 Q 154.9 248.9 147.5 248 L 147.5 247 Q 153 248.5 154.5 246 Z " /></svg>